<?xml version="1.0" standalone="no"?>
<!DOCTYPE svg PUBLIC "-//W3C//DTD SVG 20010904//EN"
 "http://www.w3.org/TR/2001/REC-SVG-20010904/DTD/svg10.dtd">
<svg version="1.0" xmlns="http://www.w3.org/2000/svg"
 width="300.000000pt" height="300.000000pt" viewBox="0 0 300.000000 300.000000"
 preserveAspectRatio="xMidYMid meet">
<metadata>
Created by potrace 1.10, written by Peter Selinger 2001-2011
</metadata>
<g transform="translate(0.000000,300.000000) scale(0.100000,-0.100000)"
fill="#000000" stroke="none">
<path d="M590 2841 c-79 -28 -126 -82 -134 -152 -4 -30 -5 -589 -4 -1244 3
-1179 3 -1190 24 -1225 11 -19 38 -45 60 -57 l39 -23 770 0 c821 0 797 -1 912
50 45 20 117 72 158 115 66 68 127 209 144 332 6 41 9 472 8 1084 l-2 1016
-29 37 c-16 21 -50 48 -75 60 -46 21 -51 21 -931 23 -851 3 -887 2 -940 -16z
m37 -26 c0 -8 -4 -12 -9 -9 -5 3 -6 10 -3 15 9 13 12 11 12 -6z m1834 -28 c19
-12 42 -38 52 -57 18 -34 19 -78 13 -1060 -4 -794 -8 -1034 -18 -1063 -17 -49
-72 -105 -128 -131 -44 -21 -57 -21 -887 -24 l-843 -2 0 1180 0 1180 889 0
888 0 34 -23z m-1851 -52 c0 -37 4 -65 10 -65 6 0 10 -9 10 -20 0 -11 -4 -20
-10 -20 -6 0 -10 -30 -10 -70 0 -54 -3 -70 -14 -70 -8 0 -36 -16 -62 -36 -29
-23 -45 -30 -40 -19 3 9 6 39 6 67 0 47 4 54 40 90 23 21 47 38 55 38 8 0 15
9 15 20 0 35 -61 17 -97 -28 -18 -22 -20 -15 -15 51 3 50 9 63 38 93 19 19 44
34 54 34 18 0 20 -7 20 -65z m-110 -156 c0 -6 -4 -7 -10 -4 -5 3 -10 11 -10
16 0 6 5 7 10 4 6 -3 10 -11 10 -16z m121 -127 c-7 -2 -11 -31 -11 -72 0 -61
-2 -69 -21 -75 -25 -8 -99 -73 -99 -87 0 -5 6 -6 13 -2 7 5 6 1 -3 -10 -19
-24 -25 -5 -11 36 6 17 11 50 11 74 0 34 7 51 32 80 17 20 43 40 56 45 14 5
22 12 18 16 -3 3 0 13 7 21 10 13 12 13 16 -4 2 -10 -2 -20 -8 -22z m-122 -64
c-9 -16 -14 -19 -17 -9 -2 7 2 17 9 22 20 13 21 11 8 -13z m131 -104 c0 -14
-4 -23 -10 -19 -6 4 -10 -21 -10 -68 0 -69 -2 -75 -22 -81 -13 -3 -41 -21 -62
-41 -45 -40 -51 -43 -36 -16 5 11 10 41 10 68 0 39 6 55 30 85 17 20 40 40 51
43 11 4 24 18 29 31 12 31 20 31 20 -2z m0 -191 c0 -20 -3 -24 -11 -16 -7 7
-9 19 -6 27 10 24 17 19 17 -11z m-20 -88 c0 -67 -2 -75 -19 -75 -11 0 -36
-16 -57 -35 -20 -19 -38 -35 -39 -35 0 0 1 28 3 63 5 69 26 108 76 138 17 10
32 19 34 19 1 0 2 -34 2 -75z m-110 15 c0 -5 -2 -10 -4 -10 -3 0 -8 5 -11 10
-3 6 -1 10 4 10 6 0 11 -4 11 -10z m130 -111 c0 -18 -2 -20 -15 -9 -13 11 -13
15 -3 21 18 12 18 12 18 -12z m-20 -89 c0 -65 -2 -71 -24 -80 -36 -13 -99 -72
-86 -80 7 -5 5 -11 -6 -21 -16 -13 -17 -11 -10 16 4 17 11 59 15 94 6 57 10
67 48 102 23 21 47 39 53 39 6 0 10 -28 10 -70z m-110 15 c0 -8 -4 -15 -10
-15 -5 0 -10 7 -10 15 0 8 5 15 10 15 6 0 10 -7 10 -15z m130 -117 c0 -16 -3
-19 -11 -11 -6 6 -8 16 -5 22 11 17 16 13 16 -11z m-20 -87 c0 -64 -2 -70 -22
-76 -13 -4 -39 -23 -59 -41 l-35 -34 4 62 c3 42 11 74 25 94 19 29 62 63 80
64 4 0 7 -31 7 -69z m20 -97 c0 -22 -2 -25 -15 -14 -12 10 -13 16 -4 26 16 20
19 18 19 -12z m-20 -88 c0 -68 -2 -74 -22 -80 -30 -7 -96 -68 -91 -83 2 -6 -1
-14 -8 -19 -9 -5 -10 1 -4 22 4 16 9 54 12 84 6 59 37 110 82 135 14 8 27 14
29 15 1 0 2 -33 2 -74z m-100 20 c0 -2 -6 -9 -13 -15 -10 -8 -14 -7 -14 4 0 8
6 15 14 15 7 0 13 -2 13 -4z m120 -122 c0 -14 -4 -23 -10 -19 -6 4 -10 -22
-10 -69 0 -68 -2 -76 -19 -76 -21 0 -105 -73 -95 -82 3 -4 1 -15 -5 -25 -9
-15 -10 -11 -5 17 4 19 9 60 11 90 5 61 35 110 82 135 16 8 31 23 34 35 7 28
17 25 17 -6z m-3 -201 c-3 -3 -11 -2 -17 2 -8 5 -7 11 2 22 12 15 13 14 16 -1
2 -10 1 -20 -1 -23z m-17 -73 c0 -65 -2 -71 -24 -80 -13 -5 -41 -24 -62 -42
-26 -22 -36 -27 -31 -15 4 10 7 41 7 69 0 46 4 54 44 94 24 24 48 44 55 44 7
0 11 -25 11 -70z m16 -107 c-10 -10 -19 5 -10 18 6 11 8 11 12 0 2 -7 1 -15
-2 -18z m-16 -82 c0 -67 -1 -69 -28 -79 -37 -13 -93 -69 -86 -86 3 -8 0 -17
-6 -21 -7 -4 -9 2 -5 22 4 15 10 55 14 89 4 40 15 70 30 90 21 27 56 53 74 54
4 0 7 -31 7 -69z m20 -96 c0 -22 -2 -24 -14 -13 -10 9 -11 17 -4 26 15 17 18
15 18 -13z m-20 -89 c0 -68 -2 -74 -22 -80 -13 -3 -38 -19 -56 -36 -18 -16
-34 -30 -36 -30 -1 0 0 28 2 62 4 47 11 71 30 96 20 26 62 59 80 62 1 0 2 -33
2 -74z m18 -91 c-1 -13 -6 -21 -10 -17 -5 5 -6 16 -2 25 9 24 14 21 12 -8z
m-18 -94 c0 -67 0 -69 -29 -74 -39 -8 -91 -61 -84 -87 3 -11 1 -20 -5 -20 -6
0 -9 10 -7 23 2 12 7 42 10 67 10 68 24 98 64 130 19 17 39 30 43 30 5 0 8
-31 8 -69z m1905 39 c-3 -5 -12 -10 -18 -10 -7 0 -6 4 3 10 19 12 23 12 15 0z
m-2005 -19 c0 -5 -6 -14 -14 -21 -12 -9 -15 -8 -13 9 1 20 27 31 27 12z m1996
-16 c-1 -8 -27 -39 -57 -69 -74 -72 -139 -96 -264 -96 -95 0 -117 -7 -90 -30
21 -18 210 -6 265 16 22 9 39 19 36 21 -7 7 27 42 36 37 4 -3 8 0 8 7 0 7 3
10 6 7 8 -9 -25 -68 -38 -68 -6 0 -34 -15 -62 -32 -50 -33 -52 -33 -188 -36
-129 -4 -138 -5 -138 -24 0 -18 6 -19 105 -16 58 2 105 0 105 -4 0 -3 -24 -15
-52 -25 -50 -17 -103 -18 -836 -18 l-784 0 -29 33 c-16 18 -29 42 -29 53 0 34
29 84 63 110 l32 24 875 5 c629 4 884 9 907 17 47 17 95 53 89 68 -5 14 12 35
30 35 7 0 11 -7 10 -15z m-1866 -74 c0 -5 -7 -12 -16 -15 -14 -5 -15 -4 -4 9
14 17 20 19 20 6z m1705 -171 c-3 -5 -12 -10 -20 -10 -7 0 -16 -6 -18 -12 -4
-10 -6 -10 -6 0 -1 7 9 17 22 22 29 12 29 12 22 0z m-55 -28 c0 -11 -37 -32
-44 -25 -15 15 -4 33 19 33 14 0 25 -3 25 -8z"/>
<path d="M842 2654 c-52 -36 -52 -39 -52 -522 l0 -449 23 -34 c48 -72 14 -69
771 -69 672 0 679 0 716 21 21 12 47 38 59 59 20 37 21 48 21 474 0 474 0 471
-56 515 -27 21 -32 21 -743 21 -633 0 -719 -2 -739 -16z m1463 -49 l25 -24 0
-449 0 -449 -25 -27 -24 -26 -700 0 -699 0 -26 31 -26 31 0 444 0 445 26 24
27 25 699 0 699 0 24 -25z"/>
<path d="M953 2542 c-29 -18 -33 -70 -33 -418 0 -372 3 -402 45 -418 9 -3 290
-6 625 -6 l609 0 20 26 c20 26 21 37 21 405 0 366 -1 380 -20 399 -20 20 -33
20 -637 20 -340 0 -623 -4 -630 -8z m1235 -49 c6 -13 8 -461 2 -731 0 -10
-125 -12 -607 -10 l-608 3 -3 365 c-1 201 0 371 3 377 3 10 132 13 604 13 562
0 601 -1 609 -17z m12 -763 c0 -5 -5 -10 -11 -10 -5 0 -7 5 -4 10 3 6 8 10 11
10 2 0 4 -4 4 -10z"/>
<path d="M981 1479 c-55 -16 -110 -59 -139 -108 -22 -38 -27 -58 -26 -113 0
-56 5 -74 30 -114 43 -71 108 -107 187 -108 212 -1 309 253 151 393 -61 54
-130 70 -203 50z m162 -66 c101 -65 100 -241 -2 -308 -165 -109 -363 83 -259
252 55 90 171 115 261 56z"/>
<path d="M984 1337 c-3 -8 -4 -49 -2 -93 3 -68 5 -79 20 -78 25 2 138 76 138
90 0 12 -123 94 -141 94 -5 0 -12 -6 -15 -13z m35 -19 c-1 -7 -5 -24 -9 -38
-7 -22 -8 -21 -9 13 -1 20 4 37 9 37 6 0 10 -6 9 -12z m24 -94 c-20 -19 -39
-31 -42 -28 -3 4 0 9 7 11 7 3 12 23 12 50 l0 44 30 -21 30 -21 -37 -35z m67
35 c0 -5 -4 -9 -10 -9 -5 0 -10 7 -10 16 0 8 5 12 10 9 6 -3 10 -10 10 -16z"/>
<path d="M1524 1481 c-85 -21 -152 -88 -175 -175 -28 -103 50 -230 159 -262
172 -50 328 106 278 278 -32 112 -155 186 -262 159z m144 -63 c49 -30 86 -101
86 -164 -2 -95 -90 -184 -183 -184 -97 0 -181 88 -181 189 0 148 152 235 278
159z"/>
<path d="M1505 1347 c-3 -7 -5 -51 -3 -98 3 -71 6 -84 21 -87 16 -3 17 5 15
94 -2 67 -7 99 -15 102 -7 2 -15 -3 -18 -11z"/>
<path d="M1612 1351 c-9 -5 -12 -34 -10 -97 3 -75 6 -89 21 -92 15 -3 17 6 17
92 0 95 -5 112 -28 97z"/>
<path d="M2042 1476 c-124 -40 -194 -180 -147 -293 41 -98 112 -147 210 -147
161 1 264 151 210 305 -38 106 -165 169 -273 135z m167 -65 c59 -46 75 -75 79
-144 3 -57 1 -66 -27 -105 -79 -108 -196 -120 -287 -28 -49 48 -63 105 -44
175 33 122 185 178 279 102z"/>
<path d="M2145 1349 c-8 -12 34 -61 46 -53 14 8 10 31 -7 48 -18 19 -30 20
-39 5z"/>
<path d="M2067 1272 c-33 -33 -47 -56 -47 -75 0 -45 38 -35 98 26 l52 53 -23
22 c-13 12 -25 22 -28 22 -3 0 -26 -22 -52 -48z m37 -42 c-68 -69 -87 -47 -24
28 30 37 36 40 49 27 13 -13 10 -19 -25 -55z"/>
<path d="M2310 831 c0 -20 105 -161 120 -161 16 0 21 19 10 40 -17 32 -110
140 -120 140 -6 0 -10 -9 -10 -19z"/>
<path d="M2235 770 c-7 -12 -3 -19 74 -107 30 -35 61 -63 68 -63 22 0 15 35
-13 61 -14 13 -42 45 -62 72 -36 46 -55 57 -67 37z"/>
<path d="M2165 717 c-8 -19 12 -49 88 -132 35 -39 48 -47 58 -38 15 15 3 35
-79 123 -50 54 -61 62 -67 47z"/>
<path d="M2085 660 c-6 -10 7 -28 96 -132 24 -29 49 -32 49 -6 0 15 -113 148
-127 148 -6 0 -15 -5 -18 -10z"/>
<path d="M2015 600 c-8 -14 62 -100 81 -100 25 0 15 34 -22 73 -37 39 -49 44
-59 27z"/>
<path d="M604 339 c-3 -6 0 -15 7 -20 8 -5 160 -8 339 -6 300 2 325 3 328 20
3 16 -18 17 -332 17 -235 0 -337 -3 -342 -11z"/>
<path d="M605 259 c-4 -6 -3 -15 2 -20 5 -5 168 -8 394 -7 333 3 384 5 384 18
0 13 -51 15 -387 18 -273 1 -389 -1 -393 -9z"/>
</g>
</svg>
